<mxfile host="Electron" agent="Mozilla/5.0 (Windows NT 10.0; Win64; x64) AppleWebKit/537.36 (KHTML, like Gecko) draw.io/28.1.2 Chrome/138.0.7204.243 Electron/37.4.0 Safari/537.36" version="28.1.2">
  <diagram name="Page-1" id="pZ4C0FNI7BuHij9BLQkB">
    <mxGraphModel dx="3420" dy="2033" grid="0" gridSize="10" guides="1" tooltips="1" connect="1" arrows="1" fold="1" page="1" pageScale="1" pageWidth="850" pageHeight="1100" math="0" shadow="0">
      <root>
        <mxCell id="0" />
        <mxCell id="1" parent="0" />
        <mxCell id="7MzC1vMGb-zY3rzy9tlx-23" value="" style="group" parent="1" vertex="1" connectable="0">
          <mxGeometry x="40" y="120" width="1072" height="307.5" as="geometry" />
        </mxCell>
        <mxCell id="7MzC1vMGb-zY3rzy9tlx-2" style="rounded=0;orthogonalLoop=1;jettySize=auto;html=1;exitX=1;exitY=0.5;exitDx=0;exitDy=0;endArrow=none;endFill=0;strokeWidth=3;entryX=0;entryY=0.5;entryDx=0;entryDy=0;" parent="7MzC1vMGb-zY3rzy9tlx-23" source="7MzC1vMGb-zY3rzy9tlx-3" edge="1">
          <mxGeometry relative="1" as="geometry">
            <mxPoint x="280" y="153" as="targetPoint" />
          </mxGeometry>
        </mxCell>
        <mxCell id="7MzC1vMGb-zY3rzy9tlx-3" value="clk 1" style="rounded=0;whiteSpace=wrap;html=1;strokeColor=none;fontSize=20;" parent="7MzC1vMGb-zY3rzy9tlx-23" vertex="1">
          <mxGeometry x="62" y="136" width="67" height="35" as="geometry" />
        </mxCell>
        <mxCell id="7MzC1vMGb-zY3rzy9tlx-4" style="rounded=0;orthogonalLoop=1;jettySize=auto;html=1;exitX=1;exitY=0.5;exitDx=0;exitDy=0;endArrow=none;endFill=0;strokeWidth=3;entryX=0.005;entryY=0.17;entryDx=0;entryDy=0;entryPerimeter=0;" parent="7MzC1vMGb-zY3rzy9tlx-23" source="7MzC1vMGb-zY3rzy9tlx-5" edge="1">
          <mxGeometry relative="1" as="geometry">
            <mxPoint x="292.8649999999998" y="33.6400000000001" as="targetPoint" />
          </mxGeometry>
        </mxCell>
        <mxCell id="7MzC1vMGb-zY3rzy9tlx-5" value="d" style="rounded=0;whiteSpace=wrap;html=1;strokeColor=none;fontSize=20;" parent="7MzC1vMGb-zY3rzy9tlx-23" vertex="1">
          <mxGeometry x="60" y="16" width="67" height="35" as="geometry" />
        </mxCell>
        <mxCell id="7MzC1vMGb-zY3rzy9tlx-6" style="rounded=0;orthogonalLoop=1;jettySize=auto;html=1;endArrow=none;endFill=0;strokeWidth=3;" parent="7MzC1vMGb-zY3rzy9tlx-23" edge="1">
          <mxGeometry relative="1" as="geometry">
            <mxPoint x="455" y="37" as="sourcePoint" />
            <mxPoint x="692" y="37" as="targetPoint" />
          </mxGeometry>
        </mxCell>
        <mxCell id="7MzC1vMGb-zY3rzy9tlx-7" value="" style="rounded=0;orthogonalLoop=1;jettySize=auto;html=1;strokeWidth=3;endArrow=none;endFill=0;" parent="7MzC1vMGb-zY3rzy9tlx-23" source="7MzC1vMGb-zY3rzy9tlx-8" edge="1">
          <mxGeometry relative="1" as="geometry">
            <mxPoint x="864" y="36" as="targetPoint" />
          </mxGeometry>
        </mxCell>
        <mxCell id="7MzC1vMGb-zY3rzy9tlx-8" value="q" style="rounded=0;whiteSpace=wrap;html=1;strokeColor=none;fontSize=20;" parent="7MzC1vMGb-zY3rzy9tlx-23" vertex="1">
          <mxGeometry x="1005" y="19.5" width="67" height="35" as="geometry" />
        </mxCell>
        <mxCell id="7MzC1vMGb-zY3rzy9tlx-9" value="" style="rounded=0;whiteSpace=wrap;html=1;strokeWidth=3;fontSize=20;container=0;fontStyle=1" parent="7MzC1vMGb-zY3rzy9tlx-23" vertex="1">
          <mxGeometry x="281" width="173" height="192" as="geometry" />
        </mxCell>
        <mxCell id="7MzC1vMGb-zY3rzy9tlx-10" value="D" style="text;html=1;align=center;verticalAlign=middle;resizable=0;points=[];autosize=1;strokeColor=none;fillColor=none;strokeWidth=3;fontSize=20;container=0;fontStyle=1" parent="7MzC1vMGb-zY3rzy9tlx-23" vertex="1">
          <mxGeometry x="290" y="18" width="33" height="37" as="geometry" />
        </mxCell>
        <mxCell id="7MzC1vMGb-zY3rzy9tlx-11" value="CLK" style="text;html=1;align=center;verticalAlign=middle;resizable=0;points=[];autosize=1;strokeColor=none;fillColor=none;strokeWidth=3;fontSize=20;container=0;fontStyle=1" parent="7MzC1vMGb-zY3rzy9tlx-23" vertex="1">
          <mxGeometry x="296" y="134" width="58" height="37" as="geometry" />
        </mxCell>
        <mxCell id="7MzC1vMGb-zY3rzy9tlx-12" value="Q" style="text;html=1;align=center;verticalAlign=middle;resizable=0;points=[];autosize=1;strokeColor=none;fillColor=none;strokeWidth=3;fontSize=20;container=0;fontStyle=1" parent="7MzC1vMGb-zY3rzy9tlx-23" vertex="1">
          <mxGeometry x="412" y="18" width="35" height="37" as="geometry" />
        </mxCell>
        <mxCell id="7MzC1vMGb-zY3rzy9tlx-13" value="" style="triangle;whiteSpace=wrap;html=1;strokeWidth=3;fillColor=#33001A;strokeColor=#33001A;fontColor=#ffffff;" parent="7MzC1vMGb-zY3rzy9tlx-23" vertex="1">
          <mxGeometry x="281" y="141" width="19" height="22" as="geometry" />
        </mxCell>
        <mxCell id="7MzC1vMGb-zY3rzy9tlx-14" value="" style="rounded=0;whiteSpace=wrap;html=1;strokeWidth=3;fontSize=20;container=0;fontStyle=1" parent="7MzC1vMGb-zY3rzy9tlx-23" vertex="1">
          <mxGeometry x="691" y="3" width="173" height="192" as="geometry" />
        </mxCell>
        <mxCell id="7MzC1vMGb-zY3rzy9tlx-15" value="D" style="text;html=1;align=center;verticalAlign=middle;resizable=0;points=[];autosize=1;strokeColor=none;fillColor=none;strokeWidth=3;fontSize=20;container=0;fontStyle=1" parent="7MzC1vMGb-zY3rzy9tlx-23" vertex="1">
          <mxGeometry x="700" y="21" width="33" height="37" as="geometry" />
        </mxCell>
        <mxCell id="7MzC1vMGb-zY3rzy9tlx-16" value="CLK" style="text;html=1;align=center;verticalAlign=middle;resizable=0;points=[];autosize=1;strokeColor=none;fillColor=none;strokeWidth=3;fontSize=20;container=0;fontStyle=1" parent="7MzC1vMGb-zY3rzy9tlx-23" vertex="1">
          <mxGeometry x="706" y="135" width="58" height="37" as="geometry" />
        </mxCell>
        <mxCell id="7MzC1vMGb-zY3rzy9tlx-17" value="Q" style="text;html=1;align=center;verticalAlign=middle;resizable=0;points=[];autosize=1;strokeColor=none;fillColor=none;strokeWidth=3;fontSize=20;container=0;fontStyle=1" parent="7MzC1vMGb-zY3rzy9tlx-23" vertex="1">
          <mxGeometry x="822" y="21" width="35" height="37" as="geometry" />
        </mxCell>
        <mxCell id="7MzC1vMGb-zY3rzy9tlx-18" value="" style="triangle;whiteSpace=wrap;html=1;strokeWidth=3;fillColor=#33001A;strokeColor=#33001A;fontColor=#ffffff;" parent="7MzC1vMGb-zY3rzy9tlx-23" vertex="1">
          <mxGeometry x="691" y="142" width="19" height="22" as="geometry" />
        </mxCell>
        <mxCell id="7MzC1vMGb-zY3rzy9tlx-20" style="edgeStyle=orthogonalEdgeStyle;rounded=0;orthogonalLoop=1;jettySize=auto;html=1;entryX=0;entryY=0.5;entryDx=0;entryDy=0;strokeWidth=3;endArrow=none;endFill=0;" parent="7MzC1vMGb-zY3rzy9tlx-23" source="7MzC1vMGb-zY3rzy9tlx-19" target="7MzC1vMGb-zY3rzy9tlx-18" edge="1">
          <mxGeometry relative="1" as="geometry">
            <Array as="points">
              <mxPoint x="600" y="288" />
              <mxPoint x="600" y="153" />
            </Array>
          </mxGeometry>
        </mxCell>
        <mxCell id="7MzC1vMGb-zY3rzy9tlx-19" value="clk 2" style="rounded=0;whiteSpace=wrap;html=1;strokeColor=none;fontSize=20;" parent="7MzC1vMGb-zY3rzy9tlx-23" vertex="1">
          <mxGeometry x="60" y="270" width="67" height="35" as="geometry" />
        </mxCell>
        <mxCell id="7MzC1vMGb-zY3rzy9tlx-21" value="&lt;font style=&quot;font-size: 20px;&quot;&gt;slow&lt;/font&gt;" style="text;html=1;align=center;verticalAlign=middle;resizable=0;points=[];autosize=1;strokeColor=none;fillColor=none;" parent="7MzC1vMGb-zY3rzy9tlx-23" vertex="1">
          <mxGeometry y="133" width="60" height="40" as="geometry" />
        </mxCell>
        <mxCell id="7MzC1vMGb-zY3rzy9tlx-22" value="&lt;font style=&quot;font-size: 20px;&quot;&gt;slow&lt;/font&gt;" style="text;html=1;align=center;verticalAlign=middle;resizable=0;points=[];autosize=1;strokeColor=none;fillColor=none;" parent="7MzC1vMGb-zY3rzy9tlx-23" vertex="1">
          <mxGeometry y="267.5" width="60" height="40" as="geometry" />
        </mxCell>
        <mxCell id="7MzC1vMGb-zY3rzy9tlx-24" value="" style="group" parent="1" vertex="1" connectable="0">
          <mxGeometry x="1200" y="120" width="1072" height="307.5" as="geometry" />
        </mxCell>
        <mxCell id="7MzC1vMGb-zY3rzy9tlx-25" style="rounded=0;orthogonalLoop=1;jettySize=auto;html=1;exitX=1;exitY=0.5;exitDx=0;exitDy=0;endArrow=none;endFill=0;strokeWidth=3;entryX=0;entryY=0.5;entryDx=0;entryDy=0;" parent="7MzC1vMGb-zY3rzy9tlx-24" source="7MzC1vMGb-zY3rzy9tlx-26" edge="1">
          <mxGeometry relative="1" as="geometry">
            <mxPoint x="280" y="153" as="targetPoint" />
          </mxGeometry>
        </mxCell>
        <mxCell id="7MzC1vMGb-zY3rzy9tlx-26" value="clk 1" style="rounded=0;whiteSpace=wrap;html=1;strokeColor=none;fontSize=20;" parent="7MzC1vMGb-zY3rzy9tlx-24" vertex="1">
          <mxGeometry x="62" y="136" width="67" height="35" as="geometry" />
        </mxCell>
        <mxCell id="7MzC1vMGb-zY3rzy9tlx-27" style="rounded=0;orthogonalLoop=1;jettySize=auto;html=1;exitX=1;exitY=0.5;exitDx=0;exitDy=0;endArrow=none;endFill=0;strokeWidth=3;entryX=0.005;entryY=0.17;entryDx=0;entryDy=0;entryPerimeter=0;" parent="7MzC1vMGb-zY3rzy9tlx-24" source="7MzC1vMGb-zY3rzy9tlx-28" edge="1">
          <mxGeometry relative="1" as="geometry">
            <mxPoint x="292.8649999999998" y="33.6400000000001" as="targetPoint" />
          </mxGeometry>
        </mxCell>
        <mxCell id="7MzC1vMGb-zY3rzy9tlx-28" value="d" style="rounded=0;whiteSpace=wrap;html=1;strokeColor=none;fontSize=20;" parent="7MzC1vMGb-zY3rzy9tlx-24" vertex="1">
          <mxGeometry x="60" y="16" width="67" height="35" as="geometry" />
        </mxCell>
        <mxCell id="7MzC1vMGb-zY3rzy9tlx-29" style="rounded=0;orthogonalLoop=1;jettySize=auto;html=1;endArrow=none;endFill=0;strokeWidth=3;" parent="7MzC1vMGb-zY3rzy9tlx-24" edge="1">
          <mxGeometry relative="1" as="geometry">
            <mxPoint x="455" y="37" as="sourcePoint" />
            <mxPoint x="692" y="37" as="targetPoint" />
          </mxGeometry>
        </mxCell>
        <mxCell id="7MzC1vMGb-zY3rzy9tlx-30" value="" style="rounded=0;orthogonalLoop=1;jettySize=auto;html=1;strokeWidth=3;endArrow=none;endFill=0;" parent="7MzC1vMGb-zY3rzy9tlx-24" source="7MzC1vMGb-zY3rzy9tlx-31" edge="1">
          <mxGeometry relative="1" as="geometry">
            <mxPoint x="864" y="36" as="targetPoint" />
          </mxGeometry>
        </mxCell>
        <mxCell id="7MzC1vMGb-zY3rzy9tlx-31" value="q" style="rounded=0;whiteSpace=wrap;html=1;strokeColor=none;fontSize=20;" parent="7MzC1vMGb-zY3rzy9tlx-24" vertex="1">
          <mxGeometry x="1005" y="19.5" width="67" height="35" as="geometry" />
        </mxCell>
        <mxCell id="7MzC1vMGb-zY3rzy9tlx-32" value="" style="rounded=0;whiteSpace=wrap;html=1;strokeWidth=3;fontSize=20;container=0;fontStyle=1" parent="7MzC1vMGb-zY3rzy9tlx-24" vertex="1">
          <mxGeometry x="281" width="173" height="192" as="geometry" />
        </mxCell>
        <mxCell id="7MzC1vMGb-zY3rzy9tlx-33" value="D" style="text;html=1;align=center;verticalAlign=middle;resizable=0;points=[];autosize=1;strokeColor=none;fillColor=none;strokeWidth=3;fontSize=20;container=0;fontStyle=1" parent="7MzC1vMGb-zY3rzy9tlx-24" vertex="1">
          <mxGeometry x="290" y="18" width="33" height="37" as="geometry" />
        </mxCell>
        <mxCell id="7MzC1vMGb-zY3rzy9tlx-34" value="CLK" style="text;html=1;align=center;verticalAlign=middle;resizable=0;points=[];autosize=1;strokeColor=none;fillColor=none;strokeWidth=3;fontSize=20;container=0;fontStyle=1" parent="7MzC1vMGb-zY3rzy9tlx-24" vertex="1">
          <mxGeometry x="296" y="134" width="58" height="37" as="geometry" />
        </mxCell>
        <mxCell id="7MzC1vMGb-zY3rzy9tlx-35" value="Q" style="text;html=1;align=center;verticalAlign=middle;resizable=0;points=[];autosize=1;strokeColor=none;fillColor=none;strokeWidth=3;fontSize=20;container=0;fontStyle=1" parent="7MzC1vMGb-zY3rzy9tlx-24" vertex="1">
          <mxGeometry x="412" y="18" width="35" height="37" as="geometry" />
        </mxCell>
        <mxCell id="7MzC1vMGb-zY3rzy9tlx-36" value="" style="triangle;whiteSpace=wrap;html=1;strokeWidth=3;fillColor=#33001A;strokeColor=#33001A;fontColor=#ffffff;" parent="7MzC1vMGb-zY3rzy9tlx-24" vertex="1">
          <mxGeometry x="281" y="141" width="19" height="22" as="geometry" />
        </mxCell>
        <mxCell id="7MzC1vMGb-zY3rzy9tlx-37" value="" style="rounded=0;whiteSpace=wrap;html=1;strokeWidth=3;fontSize=20;container=0;fontStyle=1" parent="7MzC1vMGb-zY3rzy9tlx-24" vertex="1">
          <mxGeometry x="691" y="3" width="173" height="192" as="geometry" />
        </mxCell>
        <mxCell id="7MzC1vMGb-zY3rzy9tlx-38" value="D" style="text;html=1;align=center;verticalAlign=middle;resizable=0;points=[];autosize=1;strokeColor=none;fillColor=none;strokeWidth=3;fontSize=20;container=0;fontStyle=1" parent="7MzC1vMGb-zY3rzy9tlx-24" vertex="1">
          <mxGeometry x="700" y="21" width="33" height="37" as="geometry" />
        </mxCell>
        <mxCell id="7MzC1vMGb-zY3rzy9tlx-39" value="CLK" style="text;html=1;align=center;verticalAlign=middle;resizable=0;points=[];autosize=1;strokeColor=none;fillColor=none;strokeWidth=3;fontSize=20;container=0;fontStyle=1" parent="7MzC1vMGb-zY3rzy9tlx-24" vertex="1">
          <mxGeometry x="706" y="135" width="58" height="37" as="geometry" />
        </mxCell>
        <mxCell id="7MzC1vMGb-zY3rzy9tlx-40" value="Q" style="text;html=1;align=center;verticalAlign=middle;resizable=0;points=[];autosize=1;strokeColor=none;fillColor=none;strokeWidth=3;fontSize=20;container=0;fontStyle=1" parent="7MzC1vMGb-zY3rzy9tlx-24" vertex="1">
          <mxGeometry x="822" y="21" width="35" height="37" as="geometry" />
        </mxCell>
        <mxCell id="7MzC1vMGb-zY3rzy9tlx-41" value="" style="triangle;whiteSpace=wrap;html=1;strokeWidth=3;fillColor=#33001A;strokeColor=#33001A;fontColor=#ffffff;" parent="7MzC1vMGb-zY3rzy9tlx-24" vertex="1">
          <mxGeometry x="691" y="142" width="19" height="22" as="geometry" />
        </mxCell>
        <mxCell id="7MzC1vMGb-zY3rzy9tlx-42" style="edgeStyle=orthogonalEdgeStyle;rounded=0;orthogonalLoop=1;jettySize=auto;html=1;entryX=0;entryY=0.5;entryDx=0;entryDy=0;strokeWidth=3;endArrow=none;endFill=0;" parent="7MzC1vMGb-zY3rzy9tlx-24" source="7MzC1vMGb-zY3rzy9tlx-43" target="7MzC1vMGb-zY3rzy9tlx-41" edge="1">
          <mxGeometry relative="1" as="geometry">
            <Array as="points">
              <mxPoint x="600" y="288" />
              <mxPoint x="600" y="153" />
            </Array>
          </mxGeometry>
        </mxCell>
        <mxCell id="7MzC1vMGb-zY3rzy9tlx-43" value="clk 2" style="rounded=0;whiteSpace=wrap;html=1;strokeColor=none;fontSize=20;" parent="7MzC1vMGb-zY3rzy9tlx-24" vertex="1">
          <mxGeometry x="60" y="270" width="67" height="35" as="geometry" />
        </mxCell>
        <mxCell id="7MzC1vMGb-zY3rzy9tlx-44" value="&lt;font style=&quot;font-size: 20px;&quot;&gt;slow&lt;/font&gt;" style="text;html=1;align=center;verticalAlign=middle;resizable=0;points=[];autosize=1;strokeColor=none;fillColor=none;" parent="7MzC1vMGb-zY3rzy9tlx-24" vertex="1">
          <mxGeometry y="133" width="60" height="40" as="geometry" />
        </mxCell>
        <mxCell id="7MzC1vMGb-zY3rzy9tlx-45" value="&lt;font style=&quot;font-size: 20px;&quot;&gt;fast&lt;/font&gt;" style="text;html=1;align=center;verticalAlign=middle;resizable=0;points=[];autosize=1;strokeColor=none;fillColor=none;" parent="7MzC1vMGb-zY3rzy9tlx-24" vertex="1">
          <mxGeometry y="267.5" width="60" height="40" as="geometry" />
        </mxCell>
        <mxCell id="7MzC1vMGb-zY3rzy9tlx-46" value="" style="group" parent="1" vertex="1" connectable="0">
          <mxGeometry x="2400" y="110" width="1072" height="307.5" as="geometry" />
        </mxCell>
        <mxCell id="7MzC1vMGb-zY3rzy9tlx-47" style="rounded=0;orthogonalLoop=1;jettySize=auto;html=1;exitX=1;exitY=0.5;exitDx=0;exitDy=0;endArrow=none;endFill=0;strokeWidth=3;entryX=0;entryY=0.5;entryDx=0;entryDy=0;" parent="7MzC1vMGb-zY3rzy9tlx-46" source="7MzC1vMGb-zY3rzy9tlx-48" edge="1">
          <mxGeometry relative="1" as="geometry">
            <mxPoint x="280" y="153" as="targetPoint" />
          </mxGeometry>
        </mxCell>
        <mxCell id="7MzC1vMGb-zY3rzy9tlx-48" value="clk 1" style="rounded=0;whiteSpace=wrap;html=1;strokeColor=none;fontSize=20;" parent="7MzC1vMGb-zY3rzy9tlx-46" vertex="1">
          <mxGeometry x="62" y="136" width="67" height="35" as="geometry" />
        </mxCell>
        <mxCell id="7MzC1vMGb-zY3rzy9tlx-49" style="rounded=0;orthogonalLoop=1;jettySize=auto;html=1;exitX=1;exitY=0.5;exitDx=0;exitDy=0;endArrow=none;endFill=0;strokeWidth=3;entryX=0.005;entryY=0.17;entryDx=0;entryDy=0;entryPerimeter=0;" parent="7MzC1vMGb-zY3rzy9tlx-46" source="7MzC1vMGb-zY3rzy9tlx-50" edge="1">
          <mxGeometry relative="1" as="geometry">
            <mxPoint x="292.8649999999998" y="33.6400000000001" as="targetPoint" />
          </mxGeometry>
        </mxCell>
        <mxCell id="7MzC1vMGb-zY3rzy9tlx-50" value="d" style="rounded=0;whiteSpace=wrap;html=1;strokeColor=none;fontSize=20;" parent="7MzC1vMGb-zY3rzy9tlx-46" vertex="1">
          <mxGeometry x="60" y="16" width="67" height="35" as="geometry" />
        </mxCell>
        <mxCell id="7MzC1vMGb-zY3rzy9tlx-51" style="rounded=0;orthogonalLoop=1;jettySize=auto;html=1;endArrow=none;endFill=0;strokeWidth=3;" parent="7MzC1vMGb-zY3rzy9tlx-46" edge="1">
          <mxGeometry relative="1" as="geometry">
            <mxPoint x="455" y="37" as="sourcePoint" />
            <mxPoint x="692" y="37" as="targetPoint" />
          </mxGeometry>
        </mxCell>
        <mxCell id="7MzC1vMGb-zY3rzy9tlx-52" value="" style="rounded=0;orthogonalLoop=1;jettySize=auto;html=1;strokeWidth=3;endArrow=none;endFill=0;" parent="7MzC1vMGb-zY3rzy9tlx-46" source="7MzC1vMGb-zY3rzy9tlx-53" edge="1">
          <mxGeometry relative="1" as="geometry">
            <mxPoint x="864" y="36" as="targetPoint" />
          </mxGeometry>
        </mxCell>
        <mxCell id="7MzC1vMGb-zY3rzy9tlx-53" value="q" style="rounded=0;whiteSpace=wrap;html=1;strokeColor=none;fontSize=20;" parent="7MzC1vMGb-zY3rzy9tlx-46" vertex="1">
          <mxGeometry x="1005" y="19.5" width="67" height="35" as="geometry" />
        </mxCell>
        <mxCell id="7MzC1vMGb-zY3rzy9tlx-54" value="" style="rounded=0;whiteSpace=wrap;html=1;strokeWidth=3;fontSize=20;container=0;fontStyle=1" parent="7MzC1vMGb-zY3rzy9tlx-46" vertex="1">
          <mxGeometry x="281" width="173" height="192" as="geometry" />
        </mxCell>
        <mxCell id="7MzC1vMGb-zY3rzy9tlx-55" value="D" style="text;html=1;align=center;verticalAlign=middle;resizable=0;points=[];autosize=1;strokeColor=none;fillColor=none;strokeWidth=3;fontSize=20;container=0;fontStyle=1" parent="7MzC1vMGb-zY3rzy9tlx-46" vertex="1">
          <mxGeometry x="290" y="18" width="33" height="37" as="geometry" />
        </mxCell>
        <mxCell id="7MzC1vMGb-zY3rzy9tlx-56" value="CLK" style="text;html=1;align=center;verticalAlign=middle;resizable=0;points=[];autosize=1;strokeColor=none;fillColor=none;strokeWidth=3;fontSize=20;container=0;fontStyle=1" parent="7MzC1vMGb-zY3rzy9tlx-46" vertex="1">
          <mxGeometry x="296" y="134" width="58" height="37" as="geometry" />
        </mxCell>
        <mxCell id="7MzC1vMGb-zY3rzy9tlx-57" value="Q" style="text;html=1;align=center;verticalAlign=middle;resizable=0;points=[];autosize=1;strokeColor=none;fillColor=none;strokeWidth=3;fontSize=20;container=0;fontStyle=1" parent="7MzC1vMGb-zY3rzy9tlx-46" vertex="1">
          <mxGeometry x="412" y="18" width="35" height="37" as="geometry" />
        </mxCell>
        <mxCell id="7MzC1vMGb-zY3rzy9tlx-58" value="" style="triangle;whiteSpace=wrap;html=1;strokeWidth=3;fillColor=#33001A;strokeColor=#33001A;fontColor=#ffffff;" parent="7MzC1vMGb-zY3rzy9tlx-46" vertex="1">
          <mxGeometry x="281" y="141" width="19" height="22" as="geometry" />
        </mxCell>
        <mxCell id="7MzC1vMGb-zY3rzy9tlx-59" value="" style="rounded=0;whiteSpace=wrap;html=1;strokeWidth=3;fontSize=20;container=0;fontStyle=1" parent="7MzC1vMGb-zY3rzy9tlx-46" vertex="1">
          <mxGeometry x="691" y="3" width="173" height="192" as="geometry" />
        </mxCell>
        <mxCell id="7MzC1vMGb-zY3rzy9tlx-60" value="D" style="text;html=1;align=center;verticalAlign=middle;resizable=0;points=[];autosize=1;strokeColor=none;fillColor=none;strokeWidth=3;fontSize=20;container=0;fontStyle=1" parent="7MzC1vMGb-zY3rzy9tlx-46" vertex="1">
          <mxGeometry x="700" y="21" width="33" height="37" as="geometry" />
        </mxCell>
        <mxCell id="7MzC1vMGb-zY3rzy9tlx-61" value="CLK" style="text;html=1;align=center;verticalAlign=middle;resizable=0;points=[];autosize=1;strokeColor=none;fillColor=none;strokeWidth=3;fontSize=20;container=0;fontStyle=1" parent="7MzC1vMGb-zY3rzy9tlx-46" vertex="1">
          <mxGeometry x="706" y="135" width="58" height="37" as="geometry" />
        </mxCell>
        <mxCell id="7MzC1vMGb-zY3rzy9tlx-62" value="Q" style="text;html=1;align=center;verticalAlign=middle;resizable=0;points=[];autosize=1;strokeColor=none;fillColor=none;strokeWidth=3;fontSize=20;container=0;fontStyle=1" parent="7MzC1vMGb-zY3rzy9tlx-46" vertex="1">
          <mxGeometry x="822" y="21" width="35" height="37" as="geometry" />
        </mxCell>
        <mxCell id="7MzC1vMGb-zY3rzy9tlx-63" value="" style="triangle;whiteSpace=wrap;html=1;strokeWidth=3;fillColor=#33001A;strokeColor=#33001A;fontColor=#ffffff;" parent="7MzC1vMGb-zY3rzy9tlx-46" vertex="1">
          <mxGeometry x="691" y="142" width="19" height="22" as="geometry" />
        </mxCell>
        <mxCell id="7MzC1vMGb-zY3rzy9tlx-64" style="edgeStyle=orthogonalEdgeStyle;rounded=0;orthogonalLoop=1;jettySize=auto;html=1;entryX=0;entryY=0.5;entryDx=0;entryDy=0;strokeWidth=3;endArrow=none;endFill=0;" parent="7MzC1vMGb-zY3rzy9tlx-46" source="7MzC1vMGb-zY3rzy9tlx-65" target="7MzC1vMGb-zY3rzy9tlx-63" edge="1">
          <mxGeometry relative="1" as="geometry">
            <Array as="points">
              <mxPoint x="600" y="288" />
              <mxPoint x="600" y="153" />
            </Array>
          </mxGeometry>
        </mxCell>
        <mxCell id="7MzC1vMGb-zY3rzy9tlx-65" value="clk 2" style="rounded=0;whiteSpace=wrap;html=1;strokeColor=none;fontSize=20;" parent="7MzC1vMGb-zY3rzy9tlx-46" vertex="1">
          <mxGeometry x="60" y="270" width="67" height="35" as="geometry" />
        </mxCell>
        <mxCell id="7MzC1vMGb-zY3rzy9tlx-66" value="&lt;font style=&quot;font-size: 20px;&quot;&gt;fast&lt;/font&gt;" style="text;html=1;align=center;verticalAlign=middle;resizable=0;points=[];autosize=1;strokeColor=none;fillColor=none;" parent="7MzC1vMGb-zY3rzy9tlx-46" vertex="1">
          <mxGeometry y="133" width="60" height="40" as="geometry" />
        </mxCell>
        <mxCell id="7MzC1vMGb-zY3rzy9tlx-67" value="&lt;font style=&quot;font-size: 20px;&quot;&gt;slow&lt;/font&gt;" style="text;html=1;align=center;verticalAlign=middle;resizable=0;points=[];autosize=1;strokeColor=none;fillColor=none;" parent="7MzC1vMGb-zY3rzy9tlx-46" vertex="1">
          <mxGeometry y="267.5" width="60" height="40" as="geometry" />
        </mxCell>
        <mxCell id="7MzC1vMGb-zY3rzy9tlx-68" value="" style="group" parent="1" vertex="1" connectable="0">
          <mxGeometry x="3560" y="110" width="1072" height="307.5" as="geometry" />
        </mxCell>
        <mxCell id="7MzC1vMGb-zY3rzy9tlx-69" style="rounded=0;orthogonalLoop=1;jettySize=auto;html=1;exitX=1;exitY=0.5;exitDx=0;exitDy=0;endArrow=none;endFill=0;strokeWidth=3;entryX=0;entryY=0.5;entryDx=0;entryDy=0;" parent="7MzC1vMGb-zY3rzy9tlx-68" source="7MzC1vMGb-zY3rzy9tlx-70" edge="1">
          <mxGeometry relative="1" as="geometry">
            <mxPoint x="280" y="153" as="targetPoint" />
          </mxGeometry>
        </mxCell>
        <mxCell id="7MzC1vMGb-zY3rzy9tlx-70" value="clk 1" style="rounded=0;whiteSpace=wrap;html=1;strokeColor=none;fontSize=20;" parent="7MzC1vMGb-zY3rzy9tlx-68" vertex="1">
          <mxGeometry x="62" y="136" width="67" height="35" as="geometry" />
        </mxCell>
        <mxCell id="7MzC1vMGb-zY3rzy9tlx-71" style="rounded=0;orthogonalLoop=1;jettySize=auto;html=1;exitX=1;exitY=0.5;exitDx=0;exitDy=0;endArrow=none;endFill=0;strokeWidth=3;entryX=0.005;entryY=0.17;entryDx=0;entryDy=0;entryPerimeter=0;" parent="7MzC1vMGb-zY3rzy9tlx-68" source="7MzC1vMGb-zY3rzy9tlx-72" edge="1">
          <mxGeometry relative="1" as="geometry">
            <mxPoint x="292.8649999999998" y="33.6400000000001" as="targetPoint" />
          </mxGeometry>
        </mxCell>
        <mxCell id="7MzC1vMGb-zY3rzy9tlx-72" value="d" style="rounded=0;whiteSpace=wrap;html=1;strokeColor=none;fontSize=20;" parent="7MzC1vMGb-zY3rzy9tlx-68" vertex="1">
          <mxGeometry x="60" y="16" width="67" height="35" as="geometry" />
        </mxCell>
        <mxCell id="7MzC1vMGb-zY3rzy9tlx-73" style="rounded=0;orthogonalLoop=1;jettySize=auto;html=1;endArrow=none;endFill=0;strokeWidth=3;" parent="7MzC1vMGb-zY3rzy9tlx-68" edge="1">
          <mxGeometry relative="1" as="geometry">
            <mxPoint x="455" y="37" as="sourcePoint" />
            <mxPoint x="692" y="37" as="targetPoint" />
          </mxGeometry>
        </mxCell>
        <mxCell id="7MzC1vMGb-zY3rzy9tlx-74" value="" style="rounded=0;orthogonalLoop=1;jettySize=auto;html=1;strokeWidth=3;endArrow=none;endFill=0;" parent="7MzC1vMGb-zY3rzy9tlx-68" source="7MzC1vMGb-zY3rzy9tlx-75" edge="1">
          <mxGeometry relative="1" as="geometry">
            <mxPoint x="864" y="36" as="targetPoint" />
          </mxGeometry>
        </mxCell>
        <mxCell id="7MzC1vMGb-zY3rzy9tlx-75" value="q" style="rounded=0;whiteSpace=wrap;html=1;strokeColor=none;fontSize=20;" parent="7MzC1vMGb-zY3rzy9tlx-68" vertex="1">
          <mxGeometry x="1005" y="19.5" width="67" height="35" as="geometry" />
        </mxCell>
        <mxCell id="7MzC1vMGb-zY3rzy9tlx-76" value="" style="rounded=0;whiteSpace=wrap;html=1;strokeWidth=3;fontSize=20;container=0;fontStyle=1" parent="7MzC1vMGb-zY3rzy9tlx-68" vertex="1">
          <mxGeometry x="281" width="173" height="192" as="geometry" />
        </mxCell>
        <mxCell id="7MzC1vMGb-zY3rzy9tlx-77" value="D" style="text;html=1;align=center;verticalAlign=middle;resizable=0;points=[];autosize=1;strokeColor=none;fillColor=none;strokeWidth=3;fontSize=20;container=0;fontStyle=1" parent="7MzC1vMGb-zY3rzy9tlx-68" vertex="1">
          <mxGeometry x="290" y="18" width="33" height="37" as="geometry" />
        </mxCell>
        <mxCell id="7MzC1vMGb-zY3rzy9tlx-78" value="CLK" style="text;html=1;align=center;verticalAlign=middle;resizable=0;points=[];autosize=1;strokeColor=none;fillColor=none;strokeWidth=3;fontSize=20;container=0;fontStyle=1" parent="7MzC1vMGb-zY3rzy9tlx-68" vertex="1">
          <mxGeometry x="296" y="134" width="58" height="37" as="geometry" />
        </mxCell>
        <mxCell id="7MzC1vMGb-zY3rzy9tlx-79" value="Q" style="text;html=1;align=center;verticalAlign=middle;resizable=0;points=[];autosize=1;strokeColor=none;fillColor=none;strokeWidth=3;fontSize=20;container=0;fontStyle=1" parent="7MzC1vMGb-zY3rzy9tlx-68" vertex="1">
          <mxGeometry x="412" y="18" width="35" height="37" as="geometry" />
        </mxCell>
        <mxCell id="7MzC1vMGb-zY3rzy9tlx-80" value="" style="triangle;whiteSpace=wrap;html=1;strokeWidth=3;fillColor=#33001A;strokeColor=#33001A;fontColor=#ffffff;" parent="7MzC1vMGb-zY3rzy9tlx-68" vertex="1">
          <mxGeometry x="281" y="141" width="19" height="22" as="geometry" />
        </mxCell>
        <mxCell id="7MzC1vMGb-zY3rzy9tlx-81" value="" style="rounded=0;whiteSpace=wrap;html=1;strokeWidth=3;fontSize=20;container=0;fontStyle=1" parent="7MzC1vMGb-zY3rzy9tlx-68" vertex="1">
          <mxGeometry x="691" y="3" width="173" height="192" as="geometry" />
        </mxCell>
        <mxCell id="7MzC1vMGb-zY3rzy9tlx-82" value="D" style="text;html=1;align=center;verticalAlign=middle;resizable=0;points=[];autosize=1;strokeColor=none;fillColor=none;strokeWidth=3;fontSize=20;container=0;fontStyle=1" parent="7MzC1vMGb-zY3rzy9tlx-68" vertex="1">
          <mxGeometry x="700" y="21" width="33" height="37" as="geometry" />
        </mxCell>
        <mxCell id="7MzC1vMGb-zY3rzy9tlx-83" value="CLK" style="text;html=1;align=center;verticalAlign=middle;resizable=0;points=[];autosize=1;strokeColor=none;fillColor=none;strokeWidth=3;fontSize=20;container=0;fontStyle=1" parent="7MzC1vMGb-zY3rzy9tlx-68" vertex="1">
          <mxGeometry x="706" y="135" width="58" height="37" as="geometry" />
        </mxCell>
        <mxCell id="7MzC1vMGb-zY3rzy9tlx-84" value="Q" style="text;html=1;align=center;verticalAlign=middle;resizable=0;points=[];autosize=1;strokeColor=none;fillColor=none;strokeWidth=3;fontSize=20;container=0;fontStyle=1" parent="7MzC1vMGb-zY3rzy9tlx-68" vertex="1">
          <mxGeometry x="822" y="21" width="35" height="37" as="geometry" />
        </mxCell>
        <mxCell id="7MzC1vMGb-zY3rzy9tlx-85" value="" style="triangle;whiteSpace=wrap;html=1;strokeWidth=3;fillColor=#33001A;strokeColor=#33001A;fontColor=#ffffff;" parent="7MzC1vMGb-zY3rzy9tlx-68" vertex="1">
          <mxGeometry x="691" y="142" width="19" height="22" as="geometry" />
        </mxCell>
        <mxCell id="7MzC1vMGb-zY3rzy9tlx-86" style="edgeStyle=orthogonalEdgeStyle;rounded=0;orthogonalLoop=1;jettySize=auto;html=1;entryX=0;entryY=0.5;entryDx=0;entryDy=0;strokeWidth=3;endArrow=none;endFill=0;" parent="7MzC1vMGb-zY3rzy9tlx-68" source="7MzC1vMGb-zY3rzy9tlx-87" target="7MzC1vMGb-zY3rzy9tlx-85" edge="1">
          <mxGeometry relative="1" as="geometry">
            <Array as="points">
              <mxPoint x="600" y="288" />
              <mxPoint x="600" y="153" />
            </Array>
          </mxGeometry>
        </mxCell>
        <mxCell id="7MzC1vMGb-zY3rzy9tlx-87" value="clk 2" style="rounded=0;whiteSpace=wrap;html=1;strokeColor=none;fontSize=20;" parent="7MzC1vMGb-zY3rzy9tlx-68" vertex="1">
          <mxGeometry x="60" y="270" width="67" height="35" as="geometry" />
        </mxCell>
        <mxCell id="7MzC1vMGb-zY3rzy9tlx-88" value="&lt;font style=&quot;font-size: 20px;&quot;&gt;fast&lt;/font&gt;" style="text;html=1;align=center;verticalAlign=middle;resizable=0;points=[];autosize=1;strokeColor=none;fillColor=none;" parent="7MzC1vMGb-zY3rzy9tlx-68" vertex="1">
          <mxGeometry y="133" width="60" height="40" as="geometry" />
        </mxCell>
        <mxCell id="7MzC1vMGb-zY3rzy9tlx-89" value="&lt;font style=&quot;font-size: 20px;&quot;&gt;fast&lt;/font&gt;" style="text;html=1;align=center;verticalAlign=middle;resizable=0;points=[];autosize=1;strokeColor=none;fillColor=none;" parent="7MzC1vMGb-zY3rzy9tlx-68" vertex="1">
          <mxGeometry y="267.5" width="60" height="40" as="geometry" />
        </mxCell>
      </root>
    </mxGraphModel>
  </diagram>
</mxfile>
